<?xml version="1.0" standalone="no"?>
<!DOCTYPE svg PUBLIC "-//W3C//DTD SVG 20010904//EN" "http://www.w3.org/TR/2001/REC-SVG-20010904/DTD/svg10.dtd">
<svg version="1.1" xmlns="http://www.w3.org/2000/svg" width="60mm" height="60mm" viewBox="0 0 150 150">
	<g transform="translate(0,160) scale(1,-1)" fill="#000" stroke="none">
		<title>Tiny Maze, by Adam Stanislav</title>
		<path d="M0 85l0-75 65 0 65 0 0 15 0 15-5 0-5 0 0-10 0-10-35 0-35 0 0 20 0 20-5 0-5 0 0-20 0-20-15 0-15 0 0 65 0 65 5 0 5 0 0-20 0-20 10 0 10 0 0-10 0-10 25 0 25 0 0 5 0 5-20 0-20 0 0 5 0 5 25 0 25 0 0-15 0-15-10 0-10 0 0-10 0-10-5 0-5 0 0 10 0 10-20 0-20 0 0 10 0 10-5 0-5 0 0-35 0-35 5 0 5 0 0 20 0 20 15 0 15 0 0-20 0-20 5 0 5 0 0 10 0 10 10 0 10 0 0 10 0 10 20 0 20 0 0 5 0 5-10 0-10 0 0 25 0 25 10 0 10 0 0 5 0 5-15 0-15 0 0-10 0-10-15 0-15 0 0 10 0 10-5 0-5 0 0-10 0-10-15 0-15 0 0 15 0 15 5 0 5 0 0-10 0-10 5 0 5 0 0 10 0 10 15 0 15 0 0-10 0-10 5 0 5 0 0 15 0 15-45 0-45 0 0-75zM100 155l0-5 20 0 20 0 0-15 0-15-10 0-10 0 0-15 0-15 5 0 5 0 0 10 0 10 5 0 5 0 0-25 0-25-20 0-20 0 0-10 0-10-10 0-10 0 0-5 0-5 15 0 15 0 0 10 0 10 15 0 15 0 0-20 0-20 5 0 5 0 0 75 0 75-25 0-25 0 0-5z"/>
	</g>
</svg>
